<?xml version="1.0" encoding="UTF-8"?>
<!DOCTYPE svg PUBLIC "-//W3C//DTD SVG 1.1//EN" "http://www.w3.org/Graphics/SVG/1.1/DTD/svg11.dtd">
<!-- Creator: CorelDRAW 2019 (64-Bit Evaluation Version) -->
<svg xmlns="http://www.w3.org/2000/svg" xml:space="preserve" width="1200px" height="247px" version="1.1" style="shape-rendering:geometricPrecision; text-rendering:geometricPrecision; image-rendering:optimizeQuality; fill-rule:evenodd; clip-rule:evenodd"
viewBox="0 0 801.97 165.16"
 xmlns:xlink="http://www.w3.org/1999/xlink">
 <defs>
  <style type="text/css">
   <![CDATA[
    .str0 {stroke:#1679B4;stroke-width:3.36;stroke-miterlimit:22.9256}
    .fil1 {fill:none}
    .fil2 {fill:#1679B4}
    .fil0 {fill:#F68B23}
    .fil4 {fill:#1679B4;fill-rule:nonzero}
    .fil3 {fill:#F68B23;fill-rule:nonzero}
   ]]>
  </style>
 </defs>
 <g id="Layer_x0020_1">
  <metadata id="CorelCorpID_0Corel-Layer"/>
  <g id="_2679581336256">
   <g>
    <path class="fil0" d="M8.99 138.82l45.83 -125.91c3.69,-10.14 15.01,-15.42 25.16,-11.73l0 0c10.14,3.69 15.42,15.01 11.73,25.16l-24.84 68.25 -20.99 57.66c-3.69,10.14 -15.01,15.42 -25.16,11.73l0 0c-10.14,-3.69 -15.42,-15.01 -11.73,-25.16z"/>
    <path class="fil0" d="M137.32 138.82l-45.83 -125.91c-3.69,-10.14 -15.02,-15.42 -25.16,-11.73l0 0c-10.15,3.69 -15.43,15.01 -11.73,25.16l24.84 68.25 20.98 57.66c3.7,10.14 15.02,15.42 25.16,11.73l0 0c10.15,-3.69 15.43,-15.01 11.74,-25.16z"/>
   </g>
   <path class="fil1 str0" d="M56.29 145.29l0 -108.92c0,-23.03 66.73,0.37 46.97,12.18 -10.14,6.07 -11.93,26 -11.93,37.08l0 59.66c0,9.63 -7.88,17.52 -17.52,17.52l0 0c-9.64,0 -17.52,-7.89 -17.52,-17.52z"/>
   <path class="fil2" d="M17.52 13.51l119.6 0c9.63,0 17.52,7.89 17.52,17.52l0 0c0,9.64 -7.89,17.52 -17.52,17.52l-64.83 0c-7.5,2.41 -7.33,23.54 -0.49,23.85l22.32 1.04c23.98,5.43 14.28,36.56 -1.6,34.69 -22.6,-4.02 -34.51,6.35 -36.23,19.92l0 -79.5 -38.77 0c-9.64,0 -17.52,-7.88 -17.52,-17.52l0 0c0,-9.63 7.88,-17.52 17.52,-17.52z"/>
  </g>
  <polygon class="fil3" points="219.82,79.54 206.21,79.54 206.21,26.67 188.78,26.67 188.78,15.34 237.25,15.34 237.25,26.67 219.82,26.67 "/>
  <polygon id="1" class="fil3" points="284.11,79.54 247.14,79.54 247.14,15.34 284.11,15.34 284.11,26.49 260.74,26.49 260.74,40.61 282.47,40.61 282.47,51.76 260.74,51.76 260.74,68.3 284.11,68.3 "/>
  <path id="2" class="fil3" d="M324.75 25.77c-5.12,0 -9.08,1.92 -11.9,5.77 -2.8,3.85 -4.21,9.22 -4.21,16.1 0,14.31 5.37,21.47 16.11,21.47 4.5,0 9.97,-1.12 16.37,-3.38l0 11.42c-5.26,2.2 -11.15,3.29 -17.64,3.29 -9.34,0 -16.47,-2.83 -21.42,-8.49 -4.94,-5.67 -7.42,-13.81 -7.42,-24.4 0,-6.67 1.22,-12.52 3.65,-17.54 2.42,-5.02 5.92,-8.87 10.46,-11.55 4.55,-2.68 9.89,-4.02 16,-4.02 6.24,0 12.49,1.52 18.78,4.53l-4.39 11.06c-2.4,-1.14 -4.81,-2.13 -7.24,-2.98 -2.43,-0.86 -4.81,-1.28 -7.15,-1.28z"/>
  <polygon id="3" class="fil3" points="407.37,79.54 393.81,79.54 393.81,51.85 368.39,51.85 368.39,79.54 354.79,79.54 354.79,15.34 368.39,15.34 368.39,40.52 393.81,40.52 393.81,15.34 407.37,15.34 "/>
  <path id="4" class="fil3" d="M480.54 79.54l-17.3 0 -27.93 -48.57 -0.39 0c0.55,8.59 0.84,14.7 0.84,18.36l0 30.21 -12.17 0 0 -64.2 17.17 0 27.88 48.09 0.31 0c-0.45,-8.34 -0.66,-14.25 -0.66,-17.7l0 -30.39 12.25 0 0 64.2z"/>
  <path id="5" class="fil3" d="M554.96 47.37c0,10.64 -2.62,18.81 -7.9,24.52 -5.27,5.71 -12.82,8.55 -22.66,8.55 -9.83,0 -17.38,-2.84 -22.66,-8.55 -5.27,-5.71 -7.89,-13.91 -7.89,-24.6 0,-10.68 2.63,-18.85 7.92,-24.49 5.28,-5.63 12.86,-8.45 22.72,-8.45 9.87,0 17.42,2.83 22.63,8.51 5.23,5.68 7.84,13.85 7.84,24.51zm-46.85 0c0,7.18 1.37,12.57 4.08,16.21 2.73,3.63 6.8,5.44 12.21,5.44 10.87,0 16.29,-7.22 16.29,-21.65 0,-14.46 -5.39,-21.69 -16.2,-21.69 -5.42,0 -9.5,1.83 -12.25,5.47 -2.75,3.64 -4.13,9.05 -4.13,16.22z"/>
  <polygon id="6" class="fil3" points="568.26,79.54 568.26,15.34 581.86,15.34 581.86,68.3 607.91,68.3 607.91,79.54 "/>
  <path id="7" class="fil3" d="M675.53 47.37c0,10.64 -2.62,18.81 -7.9,24.52 -5.27,5.71 -12.83,8.55 -22.66,8.55 -9.83,0 -17.38,-2.84 -22.66,-8.55 -5.27,-5.71 -7.9,-13.91 -7.9,-24.6 0,-10.68 2.64,-18.85 7.93,-24.49 5.28,-5.63 12.86,-8.45 22.72,-8.45 9.86,0 17.42,2.83 22.63,8.51 5.23,5.68 7.84,13.85 7.84,24.51zm-46.85 0c0,7.18 1.37,12.57 4.08,16.21 2.73,3.63 6.8,5.44 12.21,5.44 10.87,0 16.29,-7.22 16.29,-21.65 0,-14.46 -5.39,-21.69 -16.2,-21.69 -5.42,0 -9.5,1.83 -12.26,5.47 -2.74,3.64 -4.12,9.05 -4.12,16.22z"/>
  <path id="8" class="fil3" d="M713.19 43.49l25.46 0 0 33.31c-4.13,1.35 -8.01,2.29 -11.66,2.83 -3.64,0.54 -7.37,0.81 -11.18,0.81 -9.68,0 -17.07,-2.84 -22.18,-8.54 -5.11,-5.69 -7.65,-13.86 -7.65,-24.52 0,-10.37 2.95,-18.45 8.88,-24.25 5.92,-5.8 14.13,-8.69 24.64,-8.69 6.59,0 12.95,1.32 19.06,3.96l-4.52 10.88c-4.68,-2.34 -9.55,-3.51 -14.61,-3.51 -5.89,0 -10.6,1.98 -14.14,5.94 -3.55,3.94 -5.32,9.26 -5.32,15.93 0,6.97 1.43,12.29 4.29,15.96 2.85,3.67 7,5.51 12.44,5.51 2.83,0 5.72,-0.3 8.65,-0.88l0 -13.41 -12.16 0 0 -11.33z"/>
  <polygon id="9" class="fil3" points="773.92,41.78 787.32,15.34 801.97,15.34 780.68,54.56 780.68,79.54 767.16,79.54 767.16,55 745.86,15.34 760.61,15.34 "/>
  <polygon class="fil4" points="211.13,162.38 197.73,162.38 197.73,98.17 234.54,98.17 234.54,109.32 211.13,109.32 211.13,125.87 232.92,125.87 232.92,137.02 211.13,137.02 "/>
  <path id="1" class="fil4" d="M305.35 130.2c0,10.64 -2.62,18.81 -7.89,24.52 -5.28,5.71 -12.83,8.56 -22.66,8.56 -9.84,0 -17.39,-2.85 -22.66,-8.56 -5.28,-5.71 -7.9,-13.91 -7.9,-24.59 0,-10.69 2.64,-18.86 7.93,-24.49 5.27,-5.64 12.85,-8.46 22.72,-8.46 9.86,0 17.41,2.84 22.63,8.52 5.23,5.68 7.83,13.84 7.83,24.5zm-46.85 0c0,7.18 1.37,12.57 4.08,16.22 2.73,3.62 6.81,5.44 12.22,5.44 10.86,0 16.29,-7.23 16.29,-21.66 0,-14.46 -5.4,-21.69 -16.2,-21.69 -5.43,0 -9.51,1.83 -12.26,5.47 -2.75,3.65 -4.13,9.06 -4.13,16.22z"/>
  <path id="2" class="fil4" d="M332.25 126.68l4.4 0c4.3,0 7.47,-0.72 9.51,-2.16 2.05,-1.42 3.07,-3.69 3.07,-6.76 0,-3.04 -1.04,-5.21 -3.13,-6.5 -2.1,-1.29 -5.33,-1.94 -9.72,-1.94l-4.13 0 0 17.36zm0 11.06l0 24.64 -13.6 0 0 -64.21 18.7 0c8.72,0 15.17,1.59 19.35,4.77 4.19,3.18 6.28,8 6.28,14.46 0,3.78 -1.04,7.14 -3.12,10.09 -2.07,2.93 -5.01,5.24 -8.81,6.91 9.65,14.43 15.94,23.77 18.87,27.98l-15.11 0 -15.32 -24.64 -7.24 0z"/>
  <path id="3" class="fil3" d="M440.68 162.38l-4.66 -15.29 -23.41 0 -4.64 15.29 -14.68 0 22.66 -64.48 16.64 0 22.75 64.48 -14.66 0zm-7.91 -26.71c-4.3,-13.85 -6.73,-21.69 -7.27,-23.5 -0.54,-1.81 -0.93,-3.25 -1.15,-4.3 -0.98,3.75 -3.75,13.01 -8.31,27.8l16.73 0z"/>
  <polygon id="4" class="fil3" points="463.42,162.38 463.42,98.17 477.03,98.17 477.03,151.14 503.07,151.14 503.07,162.38 "/>
  <polygon id="5" class="fil3" points="514.22,162.38 514.22,98.17 527.83,98.17 527.83,151.14 553.88,151.14 553.88,162.38 "/>
 </g>
</svg>
